<mxfile host="app.diagrams.net" agent="Mozilla/5.0 (X11; Linux x86_64) AppleWebKit/537.36 (KHTML, like Gecko) Chrome/137.0.0.0 Safari/537.36" version="27.1.6">
  <diagram name="Page-1" id="M4MnsULAaDEeGdwQNaxV">
    <mxGraphModel dx="3306" dy="2045" grid="1" gridSize="10" guides="1" tooltips="1" connect="1" arrows="1" fold="1" page="1" pageScale="1" pageWidth="850" pageHeight="1100" math="0" shadow="0">
      <root>
        <mxCell id="0" />
        <mxCell id="1" parent="0" />
        <mxCell id="sGux77f80-_RR6iZAet8-39" value="" style="group;fillColor=default;" parent="1" vertex="1" connectable="0">
          <mxGeometry x="720" width="550" height="840" as="geometry" />
        </mxCell>
        <mxCell id="sGux77f80-_RR6iZAet8-40" value="" style="rounded=1;whiteSpace=wrap;html=1;fillStyle=auto;fillColor=#F3F3F3;" parent="sGux77f80-_RR6iZAet8-39" vertex="1">
          <mxGeometry width="520" height="839.9999999999999" as="geometry" />
        </mxCell>
        <mxCell id="sGux77f80-_RR6iZAet8-41" value="&lt;font style=&quot;font-size: 14px;&quot;&gt;Arbitrum&lt;/font&gt;" style="text;html=1;align=center;verticalAlign=middle;resizable=0;points=[];autosize=1;strokeColor=none;fillColor=none;" parent="sGux77f80-_RR6iZAet8-39" vertex="1">
          <mxGeometry x="234.99666666666667" width="80" height="30" as="geometry" />
        </mxCell>
        <mxCell id="sGux77f80-_RR6iZAet8-124" value="User" style="shape=umlActor;verticalLabelPosition=bottom;verticalAlign=top;html=1;outlineConnect=0;" parent="sGux77f80-_RR6iZAet8-39" vertex="1">
          <mxGeometry x="360" y="130" width="30" height="60" as="geometry" />
        </mxCell>
        <mxCell id="IdDQLRCiFRaTYZEqhhtP-48" value="" style="group" parent="sGux77f80-_RR6iZAet8-39" vertex="1" connectable="0">
          <mxGeometry x="330" y="370" width="160" height="180" as="geometry" />
        </mxCell>
        <mxCell id="IdDQLRCiFRaTYZEqhhtP-50" value="" style="shape=sumEllipse;perimeter=ellipsePerimeter;whiteSpace=wrap;html=1;backgroundOutline=1;fillColor=#d5e8d4;strokeColor=#82b366;" parent="IdDQLRCiFRaTYZEqhhtP-48" vertex="1">
          <mxGeometry x="22.855475483814708" y="24" width="46.3768115942029" height="48" as="geometry" />
        </mxCell>
        <mxCell id="IdDQLRCiFRaTYZEqhhtP-54" value="" style="group" parent="IdDQLRCiFRaTYZEqhhtP-48" vertex="1" connectable="0">
          <mxGeometry x="-57.14285714285714" width="217.14285714285714" height="168" as="geometry" />
        </mxCell>
        <mxCell id="IdDQLRCiFRaTYZEqhhtP-49" value="&lt;font style=&quot;font-size: 14px;&quot;&gt;Arbitrum RLC (ERC20)&lt;/font&gt;" style="shape=cube;whiteSpace=wrap;html=1;boundedLbl=1;backgroundOutline=1;darkOpacity=0.05;darkOpacity2=0.1;fillColor=#DEE0E4;" parent="IdDQLRCiFRaTYZEqhhtP-54" vertex="1">
          <mxGeometry x="57.14285714285714" width="160" height="168" as="geometry" />
        </mxCell>
        <mxCell id="IdDQLRCiFRaTYZEqhhtP-53" value="&lt;span style=&quot;text-wrap-mode: nowrap;&quot;&gt;IERC&lt;/span&gt;&lt;div style=&quot;text-wrap-mode: nowrap;&quot;&gt;7802&lt;/div&gt;&lt;div style=&quot;text-wrap-mode: nowrap;&quot;&gt;with&amp;nbsp;&lt;/div&gt;&lt;div style=&quot;text-wrap-mode: nowrap;&quot;&gt;whitelist&lt;/div&gt;" style="shape=cube;whiteSpace=wrap;html=1;boundedLbl=1;backgroundOutline=1;darkOpacity=0.05;darkOpacity2=0.1;fillColor=#DEE0E4;" parent="IdDQLRCiFRaTYZEqhhtP-54" vertex="1">
          <mxGeometry width="80" height="168" as="geometry" />
        </mxCell>
        <mxCell id="fCrgzjEHI2a46_C-KYM6-2" value="" style="shape=sumEllipse;perimeter=ellipsePerimeter;whiteSpace=wrap;html=1;backgroundOutline=1;fillColor=#69BE17;strokeColor=#2D7600;fontColor=#ffffff;" parent="IdDQLRCiFRaTYZEqhhtP-54" vertex="1">
          <mxGeometry x="80.00285714285701" y="20" width="30" height="30" as="geometry" />
        </mxCell>
        <mxCell id="sGux77f80-_RR6iZAet8-38" value="" style="group;fillColor=#FFFFFF;" parent="1" vertex="1" connectable="0">
          <mxGeometry x="10" width="430" height="840" as="geometry" />
        </mxCell>
        <mxCell id="sGux77f80-_RR6iZAet8-36" value="" style="rounded=1;whiteSpace=wrap;html=1;fillStyle=auto;fillColor=#F3F3F3;" parent="sGux77f80-_RR6iZAet8-38" vertex="1">
          <mxGeometry x="-540" width="970" height="840" as="geometry" />
        </mxCell>
        <mxCell id="IdDQLRCiFRaTYZEqhhtP-22" value="&lt;font style=&quot;font-size: 14px;&quot;&gt;RLC&lt;/font&gt;&lt;div&gt;&lt;font style=&quot;font-size: 14px;&quot;&gt;&lt;b&gt;Liquidity unifier&lt;/b&gt;&lt;/font&gt;&lt;/div&gt;" style="shape=cube;whiteSpace=wrap;html=1;boundedLbl=1;backgroundOutline=1;darkOpacity=0.05;darkOpacity2=0.1;fillColor=#DEE0E4;" parent="sGux77f80-_RR6iZAet8-38" vertex="1">
          <mxGeometry x="14.170000000000002" y="350" width="160" height="140" as="geometry" />
        </mxCell>
        <mxCell id="fCrgzjEHI2a46_C-KYM6-4" value="" style="shape=sumEllipse;perimeter=ellipsePerimeter;whiteSpace=wrap;html=1;backgroundOutline=1;fillColor=#69BE17;strokeColor=#2D7600;fontColor=#ffffff;" parent="sGux77f80-_RR6iZAet8-38" vertex="1">
          <mxGeometry x="40" y="370" width="30" height="30" as="geometry" />
        </mxCell>
        <mxCell id="sGux77f80-_RR6iZAet8-16" value="User" style="shape=umlActor;verticalLabelPosition=bottom;verticalAlign=top;html=1;outlineConnect=0;" parent="sGux77f80-_RR6iZAet8-38" vertex="1">
          <mxGeometry x="-280" y="129.99626506024097" width="30" height="60.722891566265055" as="geometry" />
        </mxCell>
        <mxCell id="sGux77f80-_RR6iZAet8-108" value="" style="group" parent="1" vertex="1" connectable="0">
          <mxGeometry x="270" y="120" width="630" height="220" as="geometry" />
        </mxCell>
        <mxCell id="sGux77f80-_RR6iZAet8-67" value="" style="rounded=1;whiteSpace=wrap;html=1;" parent="sGux77f80-_RR6iZAet8-108" vertex="1">
          <mxGeometry y="10" width="630" height="210" as="geometry" />
        </mxCell>
        <mxCell id="sGux77f80-_RR6iZAet8-96" value="&lt;b&gt;&lt;font style=&quot;font-size: 14px;&quot;&gt;LayerZero&lt;/font&gt;&lt;/b&gt;" style="text;html=1;align=center;verticalAlign=middle;whiteSpace=wrap;rounded=0;" parent="sGux77f80-_RR6iZAet8-108" vertex="1">
          <mxGeometry x="278.3493381497871" width="78.75" height="45" as="geometry" />
        </mxCell>
        <mxCell id="sGux77f80-_RR6iZAet8-97" value="DVNs" style="ellipse;shape=cloud;whiteSpace=wrap;html=1;" parent="sGux77f80-_RR6iZAet8-108" vertex="1">
          <mxGeometry x="238.9743381497871" y="80" width="157.5" height="80" as="geometry" />
        </mxCell>
        <mxCell id="sGux77f80-_RR6iZAet8-100" value="" style="endArrow=classic;html=1;rounded=0;fillColor=#ffe6cc;strokeColor=#d79b00;entryX=0.005;entryY=0.741;entryDx=0;entryDy=0;exitX=0.8;exitY=0.8;exitDx=0;exitDy=0;exitPerimeter=0;entryPerimeter=0;" parent="sGux77f80-_RR6iZAet8-108" source="sGux77f80-_RR6iZAet8-97" target="IdDQLRCiFRaTYZEqhhtP-33" edge="1">
          <mxGeometry width="50" height="50" relative="1" as="geometry">
            <mxPoint x="358.4118381497871" y="173" as="sourcePoint" />
            <mxPoint x="476.53683814978694" y="157.5" as="targetPoint" />
          </mxGeometry>
        </mxCell>
        <mxCell id="sGux77f80-_RR6iZAet8-101" value="&lt;font style=&quot;font-size: 13px; color: rgb(233, 163, 101);&quot;&gt;&lt;b&gt;[5]&lt;/b&gt;&lt;/font&gt;&lt;div&gt;&lt;font style=&quot;font-size: 13px; color: rgb(233, 163, 101);&quot;&gt;&lt;b&gt;lzReceive()&lt;/b&gt;&lt;/font&gt;&lt;/div&gt;" style="edgeLabel;html=1;align=center;verticalAlign=middle;resizable=0;points=[];" parent="sGux77f80-_RR6iZAet8-100" vertex="1" connectable="0">
          <mxGeometry x="-0.3083" y="1" relative="1" as="geometry">
            <mxPoint x="6" y="22" as="offset" />
          </mxGeometry>
        </mxCell>
        <mxCell id="sGux77f80-_RR6iZAet8-132" value="" style="endArrow=classic;html=1;rounded=0;fillColor=#fa6800;strokeColor=#C73500;exitX=0.88;exitY=0.25;exitDx=0;exitDy=0;exitPerimeter=0;" parent="sGux77f80-_RR6iZAet8-108" source="sGux77f80-_RR6iZAet8-97" edge="1">
          <mxGeometry width="50" height="50" relative="1" as="geometry">
            <mxPoint x="444" y="10" as="sourcePoint" />
            <mxPoint x="470" y="73" as="targetPoint" />
          </mxGeometry>
        </mxCell>
        <mxCell id="sGux77f80-_RR6iZAet8-133" value="&lt;font style=&quot;font-size: 13px; color: rgb(234, 107, 102);&quot;&gt;&lt;b&gt;[3]&lt;/b&gt;&lt;/font&gt;&lt;div&gt;&lt;font color=&quot;#ea6b66&quot;&gt;&lt;span style=&quot;font-size: 13px;&quot;&gt;&lt;b&gt;Detect event&lt;/b&gt;&lt;/span&gt;&lt;/font&gt;&lt;/div&gt;" style="edgeLabel;html=1;align=center;verticalAlign=middle;resizable=0;points=[];" parent="sGux77f80-_RR6iZAet8-132" vertex="1" connectable="0">
          <mxGeometry x="-0.3152" relative="1" as="geometry">
            <mxPoint x="-33" y="-22" as="offset" />
          </mxGeometry>
        </mxCell>
        <mxCell id="IdDQLRCiFRaTYZEqhhtP-47" value="" style="group" parent="sGux77f80-_RR6iZAet8-108" vertex="1" connectable="0">
          <mxGeometry x="470" y="45" width="140" height="160" as="geometry" />
        </mxCell>
        <mxCell id="IdDQLRCiFRaTYZEqhhtP-33" value="&lt;font style=&quot;font-size: 14px;&quot;&gt;LZ OFT&lt;/font&gt;&lt;div&gt;&lt;font style=&quot;font-size: 14px;&quot;&gt;(override)&lt;/font&gt;&lt;/div&gt;" style="shape=cube;whiteSpace=wrap;html=1;boundedLbl=1;backgroundOutline=1;darkOpacity=0.05;darkOpacity2=0.1;fillColor=#DEE0E4;" parent="IdDQLRCiFRaTYZEqhhtP-47" vertex="1">
          <mxGeometry width="140" height="140" as="geometry" />
        </mxCell>
        <mxCell id="IdDQLRCiFRaTYZEqhhtP-34" value="" style="shape=sumEllipse;perimeter=ellipsePerimeter;whiteSpace=wrap;html=1;backgroundOutline=1;fillColor=#69BE17;strokeColor=#2D7600;fontColor=#ffffff;" parent="IdDQLRCiFRaTYZEqhhtP-47" vertex="1">
          <mxGeometry x="20" y="20" width="30" height="30" as="geometry" />
        </mxCell>
        <mxCell id="sGux77f80-_RR6iZAet8-185" value="&lt;font style=&quot;font-size: 11px;&quot;&gt;Paus&lt;/font&gt;&lt;span style=&quot;font-size: 11px; background-color: transparent; color: light-dark(rgb(0, 0, 0), rgb(255, 255, 255));&quot;&gt;able&lt;/span&gt;" style="shape=hexagon;perimeter=hexagonPerimeter2;whiteSpace=wrap;html=1;fixedSize=1;fillColor=#f8cecc;strokeColor=#b85450;" parent="IdDQLRCiFRaTYZEqhhtP-47" vertex="1">
          <mxGeometry x="50" y="110" width="80" height="30" as="geometry" />
        </mxCell>
        <mxCell id="sGux77f80-_RR6iZAet8-8" value="" style="endArrow=classic;html=1;rounded=0;fillColor=#ffe6cc;strokeColor=#d79b00;entryX=0.75;entryY=0;entryDx=0;entryDy=0;exitX=0;exitY=0;exitDx=10;exitDy=130;exitPerimeter=0;" parent="1" source="IdDQLRCiFRaTYZEqhhtP-25" edge="1">
          <mxGeometry width="50" height="50" relative="1" as="geometry">
            <mxPoint x="300.28683814978694" y="277.5" as="sourcePoint" />
            <mxPoint x="130" y="350" as="targetPoint" />
          </mxGeometry>
        </mxCell>
        <mxCell id="sGux77f80-_RR6iZAet8-27" value="&lt;font style=&quot;font-size: 13px; color: rgb(233, 163, 101);&quot;&gt;&lt;b&gt;[3.1]&lt;/b&gt;&lt;/font&gt;&lt;div&gt;&lt;font style=&quot;font-size: 13px; color: rgb(233, 163, 101);&quot;&gt;&lt;b&gt;crosschainBurn()&lt;/b&gt;&lt;/font&gt;&lt;/div&gt;" style="edgeLabel;html=1;align=center;verticalAlign=middle;resizable=0;points=[];" parent="sGux77f80-_RR6iZAet8-8" vertex="1" connectable="0">
          <mxGeometry x="0.0916" y="-4" relative="1" as="geometry">
            <mxPoint as="offset" />
          </mxGeometry>
        </mxCell>
        <mxCell id="sGux77f80-_RR6iZAet8-20" value="" style="endArrow=classic;html=1;rounded=0;fillColor=#ffe6cc;strokeColor=#d79b00;entryX=0;entryY=0;entryDx=0;entryDy=60;entryPerimeter=0;" parent="1" source="sGux77f80-_RR6iZAet8-16" target="IdDQLRCiFRaTYZEqhhtP-25" edge="1">
          <mxGeometry width="50" height="50" relative="1" as="geometry">
            <mxPoint x="140" y="200" as="sourcePoint" />
            <mxPoint x="300.28683814978694" y="192.5" as="targetPoint" />
          </mxGeometry>
        </mxCell>
        <mxCell id="sGux77f80-_RR6iZAet8-21" value="&lt;font style=&quot;font-size: 13px; color: rgb(233, 163, 101);&quot;&gt;&lt;b&gt;[2]&lt;/b&gt;&lt;/font&gt;&lt;div&gt;&lt;font style=&quot;font-size: 13px; color: rgb(233, 163, 101);&quot;&gt;&lt;b&gt;send()&lt;/b&gt;&lt;/font&gt;&lt;/div&gt;" style="edgeLabel;html=1;align=center;verticalAlign=middle;resizable=0;points=[];" parent="sGux77f80-_RR6iZAet8-20" vertex="1" connectable="0">
          <mxGeometry x="-0.3152" relative="1" as="geometry">
            <mxPoint as="offset" />
          </mxGeometry>
        </mxCell>
        <mxCell id="sGux77f80-_RR6iZAet8-109" value="" style="group" parent="1" vertex="1" connectable="0">
          <mxGeometry y="-310" width="1080" height="1100" as="geometry" />
        </mxCell>
        <mxCell id="sGux77f80-_RR6iZAet8-62" value="" style="shape=sumEllipse;perimeter=ellipsePerimeter;whiteSpace=wrap;html=1;backgroundOutline=1;fillColor=#69BE17;strokeColor=#2D7600;" parent="sGux77f80-_RR6iZAet8-109" vertex="1">
          <mxGeometry x="-410" y="30" width="40" height="40" as="geometry" />
        </mxCell>
        <mxCell id="sGux77f80-_RR6iZAet8-63" value="&lt;p&gt;&lt;font style=&quot;font-size: 16px;&quot;&gt;Upgradable contracts&lt;/font&gt;&lt;/p&gt;" style="text;html=1;align=center;verticalAlign=middle;resizable=0;points=[];autosize=1;strokeColor=none;fillColor=none;" parent="sGux77f80-_RR6iZAet8-109" vertex="1">
          <mxGeometry x="-360" y="20" width="180" height="60" as="geometry" />
        </mxCell>
        <mxCell id="IdDQLRCiFRaTYZEqhhtP-25" value="&lt;font style=&quot;font-size: 14px;&quot;&gt;LZ Adapter (override)&lt;/font&gt;" style="shape=cube;whiteSpace=wrap;html=1;boundedLbl=1;backgroundOutline=1;darkOpacity=0.05;darkOpacity2=0.1;fillColor=#DEE0E4;" parent="sGux77f80-_RR6iZAet8-109" vertex="1">
          <mxGeometry x="300" y="470" width="140" height="140" as="geometry" />
        </mxCell>
        <mxCell id="sGux77f80-_RR6iZAet8-187" value="&lt;font style=&quot;font-size: 11px;&quot;&gt;Paus&lt;/font&gt;&lt;span style=&quot;font-size: 11px; background-color: transparent; color: light-dark(rgb(0, 0, 0), rgb(255, 255, 255));&quot;&gt;able&lt;/span&gt;" style="shape=hexagon;perimeter=hexagonPerimeter2;whiteSpace=wrap;html=1;fixedSize=1;fillColor=#ffe6cc;strokeColor=#d79b00;" parent="sGux77f80-_RR6iZAet8-109" vertex="1">
          <mxGeometry x="360" y="580" width="70" height="30" as="geometry" />
        </mxCell>
        <mxCell id="fCrgzjEHI2a46_C-KYM6-1" value="" style="shape=sumEllipse;perimeter=ellipsePerimeter;whiteSpace=wrap;html=1;backgroundOutline=1;fillColor=#69BE17;strokeColor=#2D7600;fontColor=#ffffff;" parent="sGux77f80-_RR6iZAet8-109" vertex="1">
          <mxGeometry x="320" y="490" width="30" height="30" as="geometry" />
        </mxCell>
        <mxCell id="sGux77f80-_RR6iZAet8-117" value="" style="endArrow=classic;html=1;rounded=0;fillColor=#ffe6cc;strokeColor=#d79b00;entryX=0;entryY=0.75;entryDx=0;entryDy=0;exitX=1;exitY=1;exitDx=0;exitDy=0;exitPerimeter=0;" parent="1" source="IdDQLRCiFRaTYZEqhhtP-33" edge="1">
          <mxGeometry width="50" height="50" relative="1" as="geometry">
            <mxPoint x="746.536838149787" y="320" as="sourcePoint" />
            <mxPoint x="990" y="470" as="targetPoint" />
          </mxGeometry>
        </mxCell>
        <mxCell id="sGux77f80-_RR6iZAet8-118" value="&lt;div&gt;&lt;font style=&quot;font-size: 13px; color: rgb(233, 163, 101);&quot;&gt;&lt;b&gt;[6]&lt;/b&gt;&lt;/font&gt;&lt;/div&gt;&lt;div&gt;&lt;font style=&quot;font-size: 13px; color: rgb(233, 163, 101);&quot;&gt;&lt;b&gt;crosschainMint()&lt;/b&gt;&lt;/font&gt;&lt;/div&gt;" style="edgeLabel;html=1;align=center;verticalAlign=middle;resizable=0;points=[];rotation=0;" parent="sGux77f80-_RR6iZAet8-117" vertex="1" connectable="0">
          <mxGeometry x="0.0006" relative="1" as="geometry">
            <mxPoint x="2" y="20" as="offset" />
          </mxGeometry>
        </mxCell>
        <mxCell id="sGux77f80-_RR6iZAet8-125" value="" style="endArrow=classic;html=1;rounded=0;fillColor=#fa6800;strokeColor=#C73500;entryX=1.005;entryY=0.248;entryDx=0;entryDy=0;entryPerimeter=0;" parent="1" source="sGux77f80-_RR6iZAet8-124" target="IdDQLRCiFRaTYZEqhhtP-33" edge="1">
          <mxGeometry width="50" height="50" relative="1" as="geometry">
            <mxPoint x="1020" y="170" as="sourcePoint" />
            <mxPoint x="876.474338149787" y="192.5" as="targetPoint" />
          </mxGeometry>
        </mxCell>
        <mxCell id="sGux77f80-_RR6iZAet8-126" value="&lt;font style=&quot;font-size: 13px; color: rgb(234, 107, 102);&quot;&gt;&lt;b&gt;[1]&lt;/b&gt;&lt;/font&gt;&lt;div&gt;&lt;font style=&quot;font-size: 13px; color: rgb(234, 107, 102);&quot;&gt;&lt;b&gt;send()&lt;/b&gt;&lt;/font&gt;&lt;/div&gt;" style="edgeLabel;html=1;align=center;verticalAlign=middle;resizable=0;points=[];" parent="sGux77f80-_RR6iZAet8-125" vertex="1" connectable="0">
          <mxGeometry x="-0.3152" relative="1" as="geometry">
            <mxPoint as="offset" />
          </mxGeometry>
        </mxCell>
        <mxCell id="sGux77f80-_RR6iZAet8-129" value="" style="endArrow=classic;html=1;rounded=0;fillColor=#fa6800;strokeColor=#C73500;entryX=0;entryY=0.25;entryDx=0;entryDy=0;" parent="1" edge="1">
          <mxGeometry width="50" height="50" relative="1" as="geometry">
            <mxPoint x="880" y="240" as="sourcePoint" />
            <mxPoint x="990" y="390" as="targetPoint" />
          </mxGeometry>
        </mxCell>
        <mxCell id="sGux77f80-_RR6iZAet8-130" value="&lt;font style=&quot;font-size: 13px; color: rgb(234, 107, 102);&quot;&gt;&lt;b&gt;[2]&lt;/b&gt;&lt;/font&gt;&lt;div&gt;&lt;font style=&quot;font-size: 13px; color: rgb(234, 107, 102);&quot;&gt;&lt;b&gt;crosschainBurn()&lt;/b&gt;&lt;/font&gt;&lt;/div&gt;" style="edgeLabel;html=1;align=center;verticalAlign=middle;resizable=0;points=[];" parent="sGux77f80-_RR6iZAet8-129" vertex="1" connectable="0">
          <mxGeometry x="-0.3152" relative="1" as="geometry">
            <mxPoint x="52" as="offset" />
          </mxGeometry>
        </mxCell>
        <mxCell id="sGux77f80-_RR6iZAet8-147" value="" style="group" parent="1" vertex="1" connectable="0">
          <mxGeometry x="-410" y="-230" width="420" height="60" as="geometry" />
        </mxCell>
        <mxCell id="sGux77f80-_RR6iZAet8-136" value="" style="endArrow=classic;html=1;rounded=0;fillColor=#ffe6cc;strokeColor=#d79b00;strokeWidth=3;" parent="sGux77f80-_RR6iZAet8-147" edge="1">
          <mxGeometry width="50" height="50" relative="1" as="geometry">
            <mxPoint y="30" as="sourcePoint" />
            <mxPoint x="40" y="30" as="targetPoint" />
          </mxGeometry>
        </mxCell>
        <mxCell id="sGux77f80-_RR6iZAet8-140" value="&lt;p&gt;&lt;font style=&quot;font-size: 16px;&quot;&gt;Send from Ethereum to Arbitrum using LayerZero&lt;/font&gt;&lt;/p&gt;" style="text;html=1;align=center;verticalAlign=middle;resizable=0;points=[];autosize=1;strokeColor=none;fillColor=none;" parent="sGux77f80-_RR6iZAet8-147" vertex="1">
          <mxGeometry x="50" width="370" height="60" as="geometry" />
        </mxCell>
        <mxCell id="sGux77f80-_RR6iZAet8-148" value="" style="group" parent="1" vertex="1" connectable="0">
          <mxGeometry x="-410" y="-170" width="420" height="60" as="geometry" />
        </mxCell>
        <mxCell id="sGux77f80-_RR6iZAet8-143" value="" style="endArrow=classic;html=1;rounded=0;fillColor=#ffe6cc;strokeColor=#EA6B66;strokeWidth=3;" parent="sGux77f80-_RR6iZAet8-148" edge="1">
          <mxGeometry width="50" height="50" relative="1" as="geometry">
            <mxPoint y="30" as="sourcePoint" />
            <mxPoint x="40" y="30" as="targetPoint" />
          </mxGeometry>
        </mxCell>
        <mxCell id="sGux77f80-_RR6iZAet8-144" value="&lt;p&gt;&lt;font style=&quot;font-size: 16px;&quot;&gt;Send from Arbitrum to Ethereum using LayerZero&lt;/font&gt;&lt;/p&gt;" style="text;html=1;align=center;verticalAlign=middle;resizable=0;points=[];autosize=1;strokeColor=none;fillColor=none;" parent="sGux77f80-_RR6iZAet8-148" vertex="1">
          <mxGeometry x="50" width="370" height="60" as="geometry" />
        </mxCell>
        <mxCell id="sGux77f80-_RR6iZAet8-150" value="" style="group" parent="1" vertex="1" connectable="0">
          <mxGeometry x="270" y="570" width="630" height="220" as="geometry" />
        </mxCell>
        <mxCell id="sGux77f80-_RR6iZAet8-151" value="" style="rounded=1;whiteSpace=wrap;html=1;" parent="sGux77f80-_RR6iZAet8-150" vertex="1">
          <mxGeometry y="10" width="630" height="210" as="geometry" />
        </mxCell>
        <mxCell id="sGux77f80-_RR6iZAet8-152" value="&lt;b&gt;&lt;font style=&quot;font-size: 14px;&quot;&gt;Wormhole&lt;/font&gt;&lt;/b&gt;" style="text;html=1;align=center;verticalAlign=middle;whiteSpace=wrap;rounded=0;" parent="sGux77f80-_RR6iZAet8-150" vertex="1">
          <mxGeometry x="278.3493381497871" width="78.75" height="45" as="geometry" />
        </mxCell>
        <mxCell id="sGux77f80-_RR6iZAet8-171" value="Guardian&lt;div&gt;network&lt;/div&gt;" style="ellipse;shape=cloud;whiteSpace=wrap;html=1;" parent="sGux77f80-_RR6iZAet8-150" vertex="1">
          <mxGeometry x="230" y="80" width="157.5" height="80" as="geometry" />
        </mxCell>
        <mxCell id="IdDQLRCiFRaTYZEqhhtP-23" value="&lt;font style=&quot;font-size: 14px;&quot;&gt;Wormhole Core contract&lt;/font&gt;" style="shape=cube;whiteSpace=wrap;html=1;boundedLbl=1;backgroundOutline=1;darkOpacity=0.05;darkOpacity2=0.1;" parent="sGux77f80-_RR6iZAet8-150" vertex="1">
          <mxGeometry x="20" y="40" width="140" height="120" as="geometry" />
        </mxCell>
        <mxCell id="IdDQLRCiFRaTYZEqhhtP-24" value="&lt;font style=&quot;font-size: 14px;&quot;&gt;Wormhole Core contract&lt;/font&gt;" style="shape=cube;whiteSpace=wrap;html=1;boundedLbl=1;backgroundOutline=1;darkOpacity=0.05;darkOpacity2=0.1;" parent="sGux77f80-_RR6iZAet8-150" vertex="1">
          <mxGeometry x="470" y="50" width="140" height="120" as="geometry" />
        </mxCell>
        <mxCell id="sGux77f80-_RR6iZAet8-168" value="" style="endArrow=classic;html=1;rounded=0;fillColor=#e1d5e7;strokeColor=#9673a6;entryX=0;entryY=0.5;entryDx=0;entryDy=0;exitX=1;exitY=0.3333333333333333;exitDx=0;exitDy=0;exitPerimeter=0;" parent="1" source="sGux77f80-_RR6iZAet8-170" edge="1">
          <mxGeometry width="50" height="50" relative="1" as="geometry">
            <mxPoint x="130" y="710" as="sourcePoint" />
            <mxPoint x="300.28683814978694" y="685" as="targetPoint" />
          </mxGeometry>
        </mxCell>
        <mxCell id="sGux77f80-_RR6iZAet8-169" value="&lt;div&gt;&lt;font style=&quot;font-size: 13px; color: rgb(166, 128, 184);&quot;&gt;&lt;b style=&quot;&quot;&gt;[2]&lt;/b&gt;&lt;/font&gt;&lt;/div&gt;&lt;font style=&quot;font-size: 13px; color: rgb(166, 128, 184);&quot;&gt;&lt;b style=&quot;&quot;&gt;bridgeTokens()&lt;/b&gt;&lt;/font&gt;" style="edgeLabel;html=1;align=center;verticalAlign=middle;resizable=0;points=[];" parent="sGux77f80-_RR6iZAet8-168" vertex="1" connectable="0">
          <mxGeometry x="0.2586" y="-1" relative="1" as="geometry">
            <mxPoint x="-37" y="-25" as="offset" />
          </mxGeometry>
        </mxCell>
        <mxCell id="sGux77f80-_RR6iZAet8-174" value="" style="endArrow=classic;html=1;rounded=0;fillColor=#e1d5e7;strokeColor=#9673a6;exitX=0;exitY=0;exitDx=140;exitDy=70;entryX=0;entryY=1;entryDx=0;entryDy=0;exitPerimeter=0;" parent="1" source="IdDQLRCiFRaTYZEqhhtP-24" edge="1">
          <mxGeometry width="50" height="50" relative="1" as="geometry">
            <mxPoint x="876.474338149787" y="685" as="sourcePoint" />
            <mxPoint x="990" y="510" as="targetPoint" />
          </mxGeometry>
        </mxCell>
        <mxCell id="sGux77f80-_RR6iZAet8-175" value="&lt;div&gt;&lt;font style=&quot;font-size: 13px; color: rgb(166, 128, 184);&quot;&gt;&lt;b style=&quot;&quot;&gt;[4]&lt;/b&gt;&lt;/font&gt;&lt;/div&gt;&lt;font style=&quot;font-size: 13px; color: rgb(166, 128, 184);&quot;&gt;&lt;b style=&quot;&quot;&gt;crosschainMint()&lt;/b&gt;&lt;/font&gt;&lt;div&gt;&lt;font color=&quot;#a680b8&quot;&gt;&lt;span style=&quot;font-size: 13px;&quot;&gt;&lt;b&gt;...&lt;/b&gt;&lt;/span&gt;&lt;/font&gt;&lt;/div&gt;" style="edgeLabel;html=1;align=center;verticalAlign=middle;resizable=0;points=[];" parent="sGux77f80-_RR6iZAet8-174" vertex="1" connectable="0">
          <mxGeometry x="0.2586" y="-1" relative="1" as="geometry">
            <mxPoint x="11" y="-8" as="offset" />
          </mxGeometry>
        </mxCell>
        <mxCell id="sGux77f80-_RR6iZAet8-176" value="" style="endArrow=classic;html=1;rounded=0;fillColor=#fa6800;strokeColor=#C73500;exitX=0;exitY=0;exitDx=60;exitDy=0;entryX=0;entryY=0;entryDx=0;entryDy=0;exitPerimeter=0;" parent="1" source="IdDQLRCiFRaTYZEqhhtP-25" edge="1">
          <mxGeometry width="50" height="50" relative="1" as="geometry">
            <mxPoint x="332.77121314978694" y="150" as="sourcePoint" />
            <mxPoint x="40" y="350" as="targetPoint" />
            <Array as="points">
              <mxPoint x="40" y="100" />
            </Array>
          </mxGeometry>
        </mxCell>
        <mxCell id="sGux77f80-_RR6iZAet8-177" value="&lt;font style=&quot;font-size: 13px; color: rgb(234, 107, 102);&quot;&gt;&lt;b&gt;[5]&lt;/b&gt;&lt;/font&gt;&lt;div&gt;&lt;font color=&quot;#ea6b66&quot;&gt;&lt;span style=&quot;font-size: 13px;&quot;&gt;&lt;b&gt;crosschainMint()&lt;/b&gt;&lt;/span&gt;&lt;/font&gt;&lt;/div&gt;" style="edgeLabel;html=1;align=center;verticalAlign=middle;resizable=0;points=[];" parent="sGux77f80-_RR6iZAet8-176" vertex="1" connectable="0">
          <mxGeometry x="-0.3152" relative="1" as="geometry">
            <mxPoint x="18" y="-24" as="offset" />
          </mxGeometry>
        </mxCell>
        <mxCell id="sGux77f80-_RR6iZAet8-184" value="" style="group" parent="1" vertex="1" connectable="0">
          <mxGeometry x="-410" y="-110" width="230" height="60" as="geometry" />
        </mxCell>
        <mxCell id="sGux77f80-_RR6iZAet8-182" value="" style="endArrow=classic;html=1;rounded=0;fillColor=#ffe6cc;strokeColor=#A680B8;strokeWidth=3;" parent="sGux77f80-_RR6iZAet8-184" edge="1">
          <mxGeometry width="50" height="50" relative="1" as="geometry">
            <mxPoint y="30" as="sourcePoint" />
            <mxPoint x="40" y="30" as="targetPoint" />
          </mxGeometry>
        </mxCell>
        <mxCell id="sGux77f80-_RR6iZAet8-183" value="&lt;p&gt;&lt;font style=&quot;font-size: 16px;&quot;&gt;Send using Wormhole&lt;/font&gt;&lt;/p&gt;" style="text;html=1;align=center;verticalAlign=middle;resizable=0;points=[];autosize=1;strokeColor=none;fillColor=none;" parent="sGux77f80-_RR6iZAet8-184" vertex="1">
          <mxGeometry x="50" width="180" height="60" as="geometry" />
        </mxCell>
        <mxCell id="sGux77f80-_RR6iZAet8-191" value="" style="endArrow=none;html=1;rounded=0;" parent="1" edge="1">
          <mxGeometry width="50" height="50" relative="1" as="geometry">
            <mxPoint x="-590" y="910" as="sourcePoint" />
            <mxPoint x="-590" y="-320" as="targetPoint" />
          </mxGeometry>
        </mxCell>
        <mxCell id="sGux77f80-_RR6iZAet8-192" value="" style="endArrow=none;html=1;rounded=0;" parent="1" edge="1">
          <mxGeometry width="50" height="50" relative="1" as="geometry">
            <mxPoint x="1320" y="910" as="sourcePoint" />
            <mxPoint x="1320" y="-320" as="targetPoint" />
          </mxGeometry>
        </mxCell>
        <mxCell id="sGux77f80-_RR6iZAet8-193" value="" style="endArrow=none;html=1;rounded=0;" parent="1" edge="1">
          <mxGeometry width="50" height="50" relative="1" as="geometry">
            <mxPoint x="-590" y="910" as="sourcePoint" />
            <mxPoint x="1320" y="910" as="targetPoint" />
          </mxGeometry>
        </mxCell>
        <mxCell id="sGux77f80-_RR6iZAet8-194" value="" style="endArrow=none;html=1;rounded=0;" parent="1" edge="1">
          <mxGeometry width="50" height="50" relative="1" as="geometry">
            <mxPoint x="-590" y="-320" as="sourcePoint" />
            <mxPoint x="1320" y="-320" as="targetPoint" />
          </mxGeometry>
        </mxCell>
        <mxCell id="sGux77f80-_RR6iZAet8-134" value="" style="endArrow=classic;html=1;rounded=0;fillColor=#fa6800;strokeColor=#C73500;entryX=1.013;entryY=0.384;entryDx=0;entryDy=0;exitX=0.07;exitY=0.4;exitDx=0;exitDy=0;exitPerimeter=0;entryPerimeter=0;" parent="1" source="sGux77f80-_RR6iZAet8-97" target="IdDQLRCiFRaTYZEqhhtP-25" edge="1">
          <mxGeometry width="50" height="50" relative="1" as="geometry">
            <mxPoint x="559" y="190" as="sourcePoint" />
            <mxPoint x="430.22433814978694" y="192.5" as="targetPoint" />
          </mxGeometry>
        </mxCell>
        <mxCell id="sGux77f80-_RR6iZAet8-135" value="&lt;font style=&quot;font-size: 13px; color: rgb(234, 107, 102);&quot;&gt;&lt;b&gt;[4]&lt;/b&gt;&lt;/font&gt;&lt;div&gt;&lt;font color=&quot;#ea6b66&quot;&gt;&lt;span style=&quot;font-size: 13px;&quot;&gt;&lt;b&gt;lzReceive()&lt;/b&gt;&lt;/span&gt;&lt;/font&gt;&lt;/div&gt;" style="edgeLabel;html=1;align=center;verticalAlign=middle;resizable=0;points=[];" parent="sGux77f80-_RR6iZAet8-134" vertex="1" connectable="0">
          <mxGeometry x="-0.3152" relative="1" as="geometry">
            <mxPoint x="11" y="-28" as="offset" />
          </mxGeometry>
        </mxCell>
        <mxCell id="fCrgzjEHI2a46_C-KYM6-3" value="&lt;font style=&quot;font-size: 14px;&quot;&gt;RLC&lt;/font&gt;" style="shape=cube;whiteSpace=wrap;html=1;boundedLbl=1;backgroundOutline=1;darkOpacity=0.05;darkOpacity2=0.1;" parent="1" vertex="1">
          <mxGeometry x="-480" y="350" width="160" height="140" as="geometry" />
        </mxCell>
        <mxCell id="sGux77f80-_RR6iZAet8-14" value="" style="endArrow=classic;html=1;rounded=0;fillColor=#ffe6cc;strokeColor=#d79b00;" parent="1" source="sGux77f80-_RR6iZAet8-16" target="fCrgzjEHI2a46_C-KYM6-3" edge="1">
          <mxGeometry width="50" height="50" relative="1" as="geometry">
            <mxPoint x="-380" y="230" as="sourcePoint" />
            <mxPoint x="-390" y="320" as="targetPoint" />
          </mxGeometry>
        </mxCell>
        <mxCell id="sGux77f80-_RR6iZAet8-23" value="&lt;div&gt;&lt;font style=&quot;font-size: 13px; color: rgb(233, 163, 101);&quot;&gt;&lt;b&gt;[1]&lt;/b&gt;&lt;/font&gt;&lt;/div&gt;&lt;font style=&quot;font-size: 13px; color: rgb(233, 163, 101);&quot;&gt;&lt;b&gt;approve(liquidityUnifier)&lt;/b&gt;&lt;/font&gt;" style="edgeLabel;html=1;align=center;verticalAlign=middle;resizable=0;points=[];" parent="sGux77f80-_RR6iZAet8-14" vertex="1" connectable="0">
          <mxGeometry x="0.2586" y="-1" relative="1" as="geometry">
            <mxPoint as="offset" />
          </mxGeometry>
        </mxCell>
        <mxCell id="fCrgzjEHI2a46_C-KYM6-5" value="" style="endArrow=classic;html=1;rounded=0;fillColor=#ffe6cc;strokeColor=#d79b00;exitX=0.01;exitY=0.162;exitDx=0;exitDy=0;exitPerimeter=0;entryX=0.98;entryY=0.27;entryDx=0;entryDy=0;entryPerimeter=0;" parent="1" source="IdDQLRCiFRaTYZEqhhtP-22" target="fCrgzjEHI2a46_C-KYM6-3" edge="1">
          <mxGeometry width="50" height="50" relative="1" as="geometry">
            <mxPoint x="-30" y="400" as="sourcePoint" />
            <mxPoint x="-210" y="460" as="targetPoint" />
          </mxGeometry>
        </mxCell>
        <mxCell id="fCrgzjEHI2a46_C-KYM6-6" value="&lt;font style=&quot;font-size: 13px; color: rgb(233, 163, 101);&quot;&gt;&lt;b&gt;[3.2]&lt;/b&gt;&lt;/font&gt;&lt;div&gt;&lt;font style=&quot;font-size: 13px; color: rgb(233, 163, 101);&quot;&gt;&lt;b&gt;transferFrom(user, liquidityUnifier, amount)&lt;/b&gt;&lt;/font&gt;&lt;/div&gt;" style="edgeLabel;html=1;align=center;verticalAlign=middle;resizable=0;points=[];" parent="fCrgzjEHI2a46_C-KYM6-5" vertex="1" connectable="0">
          <mxGeometry x="0.0916" y="-4" relative="1" as="geometry">
            <mxPoint y="-20" as="offset" />
          </mxGeometry>
        </mxCell>
        <mxCell id="fCrgzjEHI2a46_C-KYM6-7" value="" style="endArrow=classic;html=1;rounded=0;fillColor=#fa6800;strokeColor=#C73500;entryX=0.998;entryY=0.505;entryDx=0;entryDy=0;exitX=0;exitY=0;exitDx=0;exitDy=60;exitPerimeter=0;entryPerimeter=0;" parent="1" source="IdDQLRCiFRaTYZEqhhtP-22" target="fCrgzjEHI2a46_C-KYM6-3" edge="1">
          <mxGeometry width="50" height="50" relative="1" as="geometry">
            <mxPoint x="-6" y="568" as="sourcePoint" />
            <mxPoint x="-84" y="550" as="targetPoint" />
          </mxGeometry>
        </mxCell>
        <mxCell id="fCrgzjEHI2a46_C-KYM6-8" value="&lt;font style=&quot;font-size: 13px; color: rgb(234, 107, 102);&quot;&gt;&lt;b&gt;[6]&lt;/b&gt;&lt;/font&gt;&lt;div&gt;&lt;font color=&quot;#ea6b66&quot;&gt;&lt;span style=&quot;font-size: 13px;&quot;&gt;&lt;b&gt;transfer(user, amount)&lt;/b&gt;&lt;/span&gt;&lt;/font&gt;&lt;/div&gt;" style="edgeLabel;html=1;align=center;verticalAlign=middle;resizable=0;points=[];" parent="fCrgzjEHI2a46_C-KYM6-7" vertex="1" connectable="0">
          <mxGeometry x="-0.3152" relative="1" as="geometry">
            <mxPoint x="-35" y="24" as="offset" />
          </mxGeometry>
        </mxCell>
        <mxCell id="sGux77f80-_RR6iZAet8-170" value="User" style="shape=umlActor;verticalLabelPosition=bottom;verticalAlign=top;html=1;outlineConnect=0;" parent="1" vertex="1">
          <mxGeometry x="-400" y="660.0022891566264" width="30" height="60.722891566265055" as="geometry" />
        </mxCell>
        <mxCell id="fCrgzjEHI2a46_C-KYM6-9" value="" style="endArrow=classic;html=1;rounded=0;fillColor=#e1d5e7;strokeColor=#9673a6;entryX=0;entryY=0;entryDx=90;entryDy=140;entryPerimeter=0;" parent="1" source="sGux77f80-_RR6iZAet8-170" target="fCrgzjEHI2a46_C-KYM6-3" edge="1">
          <mxGeometry width="50" height="50" relative="1" as="geometry">
            <mxPoint x="-300" y="665" as="sourcePoint" />
            <mxPoint x="-129.71316185021306" y="640" as="targetPoint" />
          </mxGeometry>
        </mxCell>
        <mxCell id="fCrgzjEHI2a46_C-KYM6-10" value="&lt;div&gt;&lt;font style=&quot;font-size: 13px; color: rgb(166, 128, 184);&quot;&gt;&lt;b style=&quot;&quot;&gt;[1]&lt;/b&gt;&lt;/font&gt;&lt;/div&gt;&lt;font style=&quot;font-size: 13px; color: rgb(166, 128, 184);&quot;&gt;&lt;b style=&quot;&quot;&gt;approve(liquidityUnifier)&lt;/b&gt;&lt;/font&gt;" style="edgeLabel;html=1;align=center;verticalAlign=middle;resizable=0;points=[];" parent="fCrgzjEHI2a46_C-KYM6-9" vertex="1" connectable="0">
          <mxGeometry x="0.2586" y="-1" relative="1" as="geometry">
            <mxPoint x="-37" y="-25" as="offset" />
          </mxGeometry>
        </mxCell>
        <mxCell id="fCrgzjEHI2a46_C-KYM6-11" value="" style="endArrow=classic;html=1;rounded=0;fillColor=#e1d5e7;strokeColor=#9673a6;entryX=0.397;entryY=0.998;entryDx=0;entryDy=0;entryPerimeter=0;exitX=0;exitY=0.333;exitDx=0;exitDy=0;exitPerimeter=0;" parent="1" source="IdDQLRCiFRaTYZEqhhtP-23" target="IdDQLRCiFRaTYZEqhhtP-22" edge="1">
          <mxGeometry width="50" height="50" relative="1" as="geometry">
            <mxPoint x="80" y="595" as="sourcePoint" />
            <mxPoint x="250.28683814978694" y="570" as="targetPoint" />
          </mxGeometry>
        </mxCell>
        <mxCell id="fCrgzjEHI2a46_C-KYM6-12" value="&lt;div&gt;&lt;font style=&quot;font-size: 13px; color: rgb(166, 128, 184);&quot;&gt;&lt;b style=&quot;&quot;&gt;[3.1]&lt;/b&gt;&lt;/font&gt;&lt;/div&gt;&lt;font style=&quot;font-size: 13px; color: rgb(166, 128, 184);&quot;&gt;&lt;b style=&quot;&quot;&gt;crosschainMint()&lt;/b&gt;&lt;/font&gt;" style="edgeLabel;html=1;align=center;verticalAlign=middle;resizable=0;points=[];" parent="fCrgzjEHI2a46_C-KYM6-11" vertex="1" connectable="0">
          <mxGeometry x="0.2586" y="-1" relative="1" as="geometry">
            <mxPoint x="-48" y="12" as="offset" />
          </mxGeometry>
        </mxCell>
        <mxCell id="fCrgzjEHI2a46_C-KYM6-13" value="" style="endArrow=classic;html=1;rounded=0;fillColor=#e1d5e7;strokeColor=#9673a6;entryX=0.973;entryY=0.905;entryDx=0;entryDy=0;entryPerimeter=0;exitX=0;exitY=0;exitDx=0;exitDy=120;exitPerimeter=0;" parent="1" source="IdDQLRCiFRaTYZEqhhtP-22" target="fCrgzjEHI2a46_C-KYM6-3" edge="1">
          <mxGeometry width="50" height="50" relative="1" as="geometry">
            <mxPoint x="-190" y="545" as="sourcePoint" />
            <mxPoint x="-19.713161850213055" y="520" as="targetPoint" />
          </mxGeometry>
        </mxCell>
        <mxCell id="fCrgzjEHI2a46_C-KYM6-14" value="&lt;div&gt;&lt;font style=&quot;font-size: 13px; color: rgb(166, 128, 184);&quot;&gt;&lt;b style=&quot;&quot;&gt;[3.2]&lt;/b&gt;&lt;/font&gt;&lt;/div&gt;&lt;font style=&quot;font-size: 13px; color: rgb(166, 128, 184);&quot;&gt;&lt;b style=&quot;&quot;&gt;transferFrom()&lt;/b&gt;&lt;/font&gt;" style="edgeLabel;html=1;align=center;verticalAlign=middle;resizable=0;points=[];" parent="fCrgzjEHI2a46_C-KYM6-13" vertex="1" connectable="0">
          <mxGeometry x="0.2586" y="-1" relative="1" as="geometry">
            <mxPoint x="-25" y="27" as="offset" />
          </mxGeometry>
        </mxCell>
        <mxCell id="sGux77f80-_RR6iZAet8-98" value="" style="endArrow=classic;html=1;rounded=0;fillColor=#ffe6cc;strokeColor=#d79b00;entryX=1.007;entryY=0.837;entryDx=0;entryDy=0;exitX=0.13;exitY=0.77;exitDx=0;exitDy=0;entryPerimeter=0;exitPerimeter=0;" parent="1" source="sGux77f80-_RR6iZAet8-97" target="IdDQLRCiFRaTYZEqhhtP-25" edge="1">
          <mxGeometry width="50" height="50" relative="1" as="geometry">
            <mxPoint x="523.4118381497872" y="243" as="sourcePoint" />
            <mxPoint x="430.22433814978694" y="277.5" as="targetPoint" />
          </mxGeometry>
        </mxCell>
        <mxCell id="sGux77f80-_RR6iZAet8-99" value="&lt;div&gt;&lt;font style=&quot;font-size: 13px; color: rgb(233, 163, 101);&quot;&gt;&lt;b&gt;[4]&lt;/b&gt;&lt;/font&gt;&lt;/div&gt;&lt;span style=&quot;font-size: 13px;&quot;&gt;&lt;font style=&quot;color: rgb(233, 163, 101);&quot;&gt;&lt;b&gt;Detect event&lt;/b&gt;&lt;/font&gt;&lt;/span&gt;" style="edgeLabel;html=1;align=center;verticalAlign=middle;resizable=0;points=[];" parent="sGux77f80-_RR6iZAet8-98" vertex="1" connectable="0">
          <mxGeometry x="0.0006" relative="1" as="geometry">
            <mxPoint x="10" y="20" as="offset" />
          </mxGeometry>
        </mxCell>
        <mxCell id="sGux77f80-_RR6iZAet8-37" value="&lt;font style=&quot;font-size: 15px;&quot;&gt;Mainnet&lt;/font&gt;" style="text;html=1;align=center;verticalAlign=middle;resizable=0;points=[];autosize=1;strokeColor=none;fillColor=none;" parent="1" vertex="1">
          <mxGeometry x="-85.00333333333336" width="80" height="30" as="geometry" />
        </mxCell>
      </root>
    </mxGraphModel>
  </diagram>
</mxfile>
